<?xml version="1.0" encoding="utf-8"?>
<!-- Generator: Adobe Illustrator 22.1.0, SVG Export Plug-In . SVG Version: 6.00 Build 0)  -->
<svg version="1.1" id="Layer_1" xmlns="http://www.w3.org/2000/svg" xmlns:xlink="http://www.w3.org/1999/xlink" x="0px" y="0px"
	 viewBox="0 0 1366 467" style="enable-background:new 0 0 1366 467;" xml:space="preserve">
<style type="text/css">
	.st0{fill:none;stroke:#000000;stroke-miterlimit:10;}
</style>
<g>
	<path d="M125.8,318.5L149,183.3h-23.7l0.9-7.1h24.2l3.3-20.3c2.4-12.9,7.3-23.1,14.9-30.7c7.5-7.5,17-11.4,28.3-11.6
		c5.5,0,11.1,0.8,16.6,2.4l-2,6.6c-5.5-1.4-10.4-2-14.6-1.8c-9.2,0.2-17,3.5-23.4,9.9c-6.4,6.4-10.6,15.3-12.6,26.5l-3.4,18.9h36.5
		l-1.1,7.1h-36.6l-23.3,135.3H125.8z"/>
	<path d="M218.8,318.5h-7.1l24.5-142.4h7.1L218.8,318.5z M237.4,151.4c0.3-1.8,1.2-3.4,2.8-4.9c1.6-1.5,3.4-2.2,5.2-2.2
		c2,0,3.7,0.8,4.9,2.4c1.3,1.6,1.7,3.3,1.4,5.3c-0.3,1.8-1.2,3.4-2.9,4.8c-1.7,1.4-3.4,2.2-5.3,2.2c-2-0.1-3.6-0.9-4.9-2.4
		C237.5,155.1,237,153.4,237.4,151.4z"/>
	<path d="M286.5,209.3c7.1-11.5,15.5-20.3,25.1-26.5c9.6-6.2,19.6-9.3,29.9-9.3c10.9,0,19.4,2.8,25.7,8.4
		c6.2,5.6,9.8,13.7,10.8,24.3c0.5,6.7,0.2,13.6-1.1,20.9l-15.8,91.3H354l15.8-91.2c1.1-6.1,1.5-12.2,1.3-18.1
		c-0.4-9.3-3.2-16.4-8.2-21.3c-5-4.9-12.3-7.3-21.6-7.2c-12,0.2-23.6,4.8-34.7,14c-11.1,9.2-18.6,20.1-22.6,32.8l-15.8,91.1h-7.1
		l24.5-142.4h7.1L286.5,209.3z"/>
	<path d="M449.5,321.2c-11.4,0-21.2-3.2-29.5-9.6c-8.2-6.4-14.2-15.2-17.8-26.3c-3.6-11.1-4.6-22.7-2.8-34.9l1.1-6.6
		c2.1-12.8,6.6-24.8,13.5-35.9c6.9-11.1,15.1-19.7,24.5-25.5c9.5-5.9,19.6-8.8,30.4-8.8c14.4,0,25.7,5.3,33.8,15.9
		c8.2,10.6,11.6,24.2,10.4,40.8l-0.4,4.1l-1.2,8.3H408l-1.4,7.8c-1.2,7.4-1.3,14.8-0.1,22.3c1.9,12.5,6.7,22.5,14.4,30
		c7.7,7.5,17.2,11.3,28.5,11.4c16.4,0.2,31.2-6.3,44.3-19.3l4.7,3.7C485.4,313.6,469.1,321.2,449.5,321.2z M468.8,180.6
		c-13.5,0-25.6,5.1-36.3,15.2c-10.7,10.1-18.6,23.4-23.8,39.7h96.1l0.4-1.7c1.1-6.3,1.2-12.6,0.3-18.9c-1.6-10.4-5.7-18.6-12.3-24.9
		C486.6,183.8,478.4,180.6,468.8,180.6z"/>
	<path d="M718.6,294.9c-7.1,7.9-17.5,14.3-31.2,19.1c-13.7,4.8-28.7,7.2-45,7.2c-25.1,0-45.1-7.7-60.1-23
		c-15-15.4-23-36.7-24.1-64.1l-0.1-16.6c0-18.9,3.3-35.3,10-49.4c6.7-14.1,16.2-24.9,28.6-32.5c12.4-7.6,26.8-11.4,43.1-11.4
		c23.9,0,42.4,5.5,55.6,16.4c13.2,10.9,20.9,27.2,23.1,48.9h-44.5c-1.6-10.7-5-18.3-10.3-22.9c-5.3-4.6-12.7-6.8-22.4-6.8
		c-11.6,0-20.5,4.9-26.8,14.7c-6.3,9.8-9.5,23.9-9.6,42.1v11.6c0,19.1,3.3,33.5,9.8,43.1c6.5,9.6,16.8,14.4,30.9,14.4
		c12,0,21-2.7,26.8-8v-29.7h-32.1v-31.7h78.3V294.9z"/>
	<path d="M795.6,250.8h-25v67.8h-46.2V127h75.4c22.7,0,40.5,5,53.3,15.1c12.8,10.1,19.2,24.3,19.2,42.7c0,13.3-2.7,24.4-8.1,33.1
		c-5.4,8.8-13.8,15.9-25.3,21.3l40,77.4v2h-49.5L795.6,250.8z M770.6,215.2h29.2c8.8,0,15.4-2.3,19.8-6.9c4.4-4.6,6.6-11.1,6.6-19.3
		c0-8.3-2.2-14.8-6.7-19.5c-4.5-4.7-11.1-7.1-19.7-7.1h-29.2V215.2z"/>
	<path d="M929.4,318.5h-46.1V127h46.1V318.5z"/>
	<path d="M1096.5,318.5h-45.9l-67.9-119.2v119.2h-46.2V127h46.2l67.8,119.2V127h46.1V318.5z"/>
	<path d="M1102.8,318.5V127h61.7c16.9,0,32.2,3.8,45.7,11.5c13.5,7.7,24.1,18.5,31.6,32.5c7.6,14,11.4,29.7,11.5,47v8.8
		c0,17.5-3.7,33.3-11.1,47.2c-7.4,13.9-17.9,24.8-31.3,32.6c-13.5,7.9-28.5,11.8-45.1,11.9H1102.8z M1149,162.6V283h16.1
		c13.2,0,23.4-4.7,30.5-14.1c7.1-9.4,10.7-23.4,10.7-42v-8.3c0-18.5-3.6-32.5-10.7-41.8c-7.1-9.4-17.5-14.1-31.1-14.1H1149z"/>
	<line class="st0" x1="536.5" y1="99.5" x2="536.5" y2="356.5"/>
</g>
</svg>
