<?xml version="1.0" encoding="utf-8"?>
<!-- Generator: Adobe Illustrator 22.1.0, SVG Export Plug-In . SVG Version: 6.00 Build 0)  -->
<svg version="1.1" id="Layer_1" xmlns="http://www.w3.org/2000/svg" xmlns:xlink="http://www.w3.org/1999/xlink" x="0px" y="0px"
	 viewBox="0 0 399 335" style="enable-background:new 0 0 399 335;" xml:space="preserve">
<style type="text/css">
	.st0{fill:none;stroke:#000000;stroke-miterlimit:10;}
</style>
<line class="st0" x1="161.5" y1="39" x2="161.5" y2="296"/>
<g>
	<path d="M349.3,246.9c-7.1,7.9-17.5,14.3-31.2,19.1c-13.7,4.8-28.7,7.2-45,7.2c-25.1,0-45.1-7.7-60.1-23
		c-15-15.4-23-36.7-24.1-64.1l-0.1-16.6c0-18.9,3.3-35.3,10-49.4s16.2-24.9,28.6-32.5c12.4-7.6,26.8-11.4,43.1-11.4
		c23.9,0,42.4,5.5,55.6,16.4c13.2,10.9,20.9,27.2,23.1,48.9h-44.5c-1.6-10.7-5-18.3-10.3-22.9s-12.7-6.8-22.4-6.8
		c-11.6,0-20.5,4.9-26.8,14.7c-6.3,9.8-9.5,23.9-9.6,42.1v11.6c0,19.1,3.3,33.5,9.8,43.1s16.8,14.4,30.9,14.4c12,0,21-2.7,26.8-8
		V200H271v-31.7h78.3V246.9z"/>
</g>
<g>
	<path d="M52.8,270L76,134.7H52.3l0.9-7.1h24.2l3.3-20.3c2.4-12.9,7.3-23.1,14.9-30.7c7.5-7.5,17-11.4,28.3-11.6
		c5.5,0,11.1,0.8,16.6,2.4l-2,6.6c-5.5-1.4-10.4-2-14.6-1.8c-9.2,0.2-17,3.5-23.4,9.9s-10.6,15.3-12.6,26.5l-3.4,18.9H121l-1.1,7.1
		H83.3L59.9,270H52.8z"/>
</g>
</svg>
